<svg xmlns="http://www.w3.org/2000/svg" xmlns:xlink="http://www.w3.org/1999/xlink" version="1.1" x="0px" y="0px" viewBox="0 0 64 80" style="enable-background:new 0 0 64 64;" xml:space="preserve"><path  fill="#fff" d="M46.2,49.1c-0.7-2.3-2.5-4.2-4.9-4.8c2.4-0.7,4.3-2.5,4.9-4.8c0.7,2.3,2.5,4.2,4.9,4.8C48.7,44.9,46.8,46.8,46.2,49.1z"/><path fill="#fff"  d="M38.8,38.8c-2.3,2.3-4,4.9-5.3,7.8c-0.7,1.7-1.2,3.4-1.6,5.2c-0.3-1.8-0.8-3.5-1.6-5.2c-1.2-2.9-3-5.6-5.3-7.8  s-4.9-4-7.8-5.3c-1.7-0.7-3.4-1.2-5.2-1.6c1.8-0.3,3.5-0.8,5.2-1.6c2.9-1.2,5.6-3,7.8-5.3s4-4.9,5.3-7.8c0.7-1.7,1.2-3.4,1.6-5.2  c0.3,1.8,0.8,3.5,1.6,5.2c1.2,2.9,3,5.6,5.3,7.8c2.3,2.3,4.9,4,7.8,5.3c1.7,0.7,3.4,1.2,5.2,1.6c-1.8,0.3-3.5,0.8-5.2,1.6  C43.7,34.8,41.1,36.6,38.8,38.8z"/>
 
</svg>
